<svg width="32" height="32" viewBox="0 0 32 32" fill="none" xmlns="http://www.w3.org/2000/svg">
<path fill-rule="evenodd" clip-rule="evenodd" d="M22.2309 1.35575C32.971 6.28473 35.3107 18.9853 26.9693 27.0814C22.6252 31.2979 18.8328 32.27 8.0177 31.9411C1.00148 31.7274 0.364441 31.5896 0.364441 30.2893C0.364441 28.9614 0.858624 28.8826 8.06508 29.0569C17.7592 29.2925 21.7112 28.3379 25.1063 24.9418C31.3711 18.6732 29.7704 8.52717 21.8883 4.54329C19.026 3.09647 17.5398 2.90249 9.32094 2.90249C0.486165 2.90249 0 2.82665 0 1.44399C0 0.0584263 0.480333 -0.0137667 9.65768 0.00154743C17.4567 0.0146739 19.8766 0.275011 22.2309 1.35575Z" fill="url(#paint0_linear_6_10023)"/>
<defs>
<linearGradient id="paint0_linear_6_10023" x1="-1.09332" y1="2.18774" x2="-0.728516" y2="32.0869" gradientUnits="userSpaceOnUse">
<stop stop-color="#DD3124"/>
<stop offset="0.096777" stop-color="#41BBFD"/>
<stop offset="0.398687" stop-color="#FF6000"/>
<stop offset="0.812528" stop-color="#259C28"/>
<stop offset="0.963393" stop-color="#7E86D1"/>
</linearGradient>
</defs>
</svg>
